<svg  viewBox="0 0 91 87" fill="none" xmlns="http://www.w3.org/2000/svg">
<path fill-rule="evenodd" clip-rule="evenodd" d="M46.1591 0H44.8403V1.40299H42.2026V2.80621H48.7968V1.40299H46.1591V0ZM50.1151 2.80662H40.8833V4.20928H39.5654V5.61251H51.4349V4.20928H50.1151V2.80662ZM52.7537 5.61275H38.2466V7.01598H52.7537V5.61275ZM35.6094 9.82236H36.9272V7.01606H54.0721V9.82236H55.3919V12.6288H35.6094V9.82236ZM56.7097 12.6291H34.2896V15.4353H32.9707V18.2416H31.6519V22.4512H59.3473V18.2416H58.0285V15.4353H56.7097V12.6291ZM30.333 22.4521H60.6662V26.6613H61.9855V29.4674H63.3038V32.2739H27.6953V29.4674H29.0146V26.6613H30.333V22.4521ZM64.6221 32.2742H26.376V33.6773H25.0586V35.0805H23.7393V36.4837H67.2607V35.0805H65.9424V33.6773H64.6221V32.2742ZM22.4194 36.4838H68.5786V37.887H22.4194V36.4838ZM69.8989 37.8871H21.1021V39.2903H69.8989V37.8871ZM19.7822 39.2904H71.2167V40.6936H72.5355V42.0968H18.4634V40.6936H19.7822V39.2904ZM17.1445 42.0969H73.8543V43.4997H75.1731V44.9029H15.8257V43.4997H17.1445V42.0969ZM14.5068 44.9035H76.492V46.3065H77.8113V47.7093H79.1296V49.1125H11.8691V47.7093H13.1885V46.3065H14.5068V44.9035ZM80.4484 49.1133H10.5503V50.5158H9.23242V51.919H81.7682V50.5158H80.4484V49.1133ZM83.0861 51.9192H7.9126V53.3224H6.59473V54.7256H84.4058V53.3224H83.0861V51.9192ZM85.7237 54.7258H5.2749V56.1288H3.95605V58.9355H2.6377V75.7741V77.1774H5.2749H5.27536H6.59373V60.3385H87.0425V56.1288H85.7237V54.7258ZM55.3906 60.3392H35.6094V68.7586H55.3906V70.1618H63.3036V60.3392H55.3919H55.3906ZM27.6962 60.3392H35.6083V70.1618H27.6962V71.565H21.1021V60.3392H27.6953H27.6962ZM63.3037 60.3392H69.8979V71.565H63.3037V60.3392ZM18.4634 60.3392H21.101V72.9683H18.4634V60.3392ZM72.5366 60.3392H69.8979V72.9683H72.5366V74.3715H79.1294V75.7747H83.0859V60.3392H79.1308H79.1294H73.8544H72.5366ZM83.0864 60.3392H85.7241V77.1779H83.0864V60.3392ZM87.043 60.3392H85.7241V77.1779H88.3618L88.3618 75.7741V58.9355H87.043V60.3392ZM11.8691 60.3392H18.4633V74.3715H11.8691V60.3392ZM11.8691 60.3392H7.91356H7.9126H6.59473V77.1779H7.91356V75.7747H11.8691V60.3392ZM88.3618 61.7416H89.6806V72.9674H88.3618V61.7416ZM91 64.548H89.6812V71.5642H91V64.548ZM2.63719 61.7416H1.31836V64.548H0V75.7738H1.31836V77.1774H2.63719V72.9677H1.31883V72.9674H2.63719V61.7416ZM89.6806 72.9677H88.3618V77.1774H89.6806V72.9677ZM91 71.5646H89.6812V75.7743H91V71.5646Z" fill="url(#paint0_linear_803_159)"/>
<rect x="32.9707" y="78.5807" width="1.31883" height="8.41935" fill="url(#paint1_linear_803_159)"/>
<rect x="30.333" y="79.9841" width="6.59416" height="2.80645" fill="url(#paint2_linear_803_159)"/>
<rect x="34.2896" y="78.5807" width="1.31883" height="1.40322" fill="url(#paint3_linear_803_159)"/>
<rect x="31.6519" y="78.5807" width="1.31883" height="1.40322" fill="url(#paint4_linear_803_159)"/>
<rect x="31.6519" y="82.7903" width="1.31883" height="2.80645" fill="url(#paint5_linear_803_159)"/>
<rect x="34.2896" y="82.7903" width="1.31883" height="2.80645" fill="url(#paint6_linear_803_159)"/>
<rect x="44.8403" y="78.5807" width="1.31883" height="8.41935" fill="url(#paint7_linear_803_159)"/>
<rect x="42.2026" y="79.9841" width="6.59416" height="2.80645" fill="url(#paint8_linear_803_159)"/>
<rect x="46.1597" y="78.5807" width="1.31883" height="1.40322" fill="url(#paint9_linear_803_159)"/>
<rect x="43.522" y="78.5807" width="1.31883" height="1.40322" fill="url(#paint10_linear_803_159)"/>
<rect x="43.522" y="82.7903" width="1.31883" height="2.80645" fill="url(#paint11_linear_803_159)"/>
<rect x="46.1597" y="82.7903" width="1.31883" height="2.80645" fill="url(#paint12_linear_803_159)"/>
<rect x="56.709" y="78.5807" width="1.31883" height="8.41935" fill="url(#paint13_linear_803_159)"/>
<rect x="54.0732" y="79.9841" width="6.59416" height="2.80645" fill="url(#paint14_linear_803_159)"/>
<rect x="58.0293" y="78.5807" width="1.31883" height="1.40322" fill="url(#paint15_linear_803_159)"/>
<rect x="55.3906" y="78.5807" width="1.31883" height="1.40322" fill="url(#paint16_linear_803_159)"/>
<rect x="55.3906" y="82.7903" width="1.31883" height="2.80645" fill="url(#paint17_linear_803_159)"/>
<rect x="58.0293" y="82.7903" width="1.31883" height="2.80645" fill="url(#paint18_linear_803_159)"/>
<rect x="43.522" y="8.41956" width="1.31883" height="4.20967" fill="#333333"/>
<rect x="46.1597" y="8.41956" width="1.31883" height="4.20967" fill="#333333"/>
<rect x="47.4771" y="8.41956" width="2.63767" height="4.20967" fill="#333333"/>
<rect x="48.7964" y="9.82239" width="1.31883" height="4.20967" fill="#333333"/>
<rect x="50.1162" y="9.82239" width="1.31883" height="4.20967" fill="#333333"/>
<rect x="40.8833" y="8.41956" width="2.63767" height="4.20967" fill="#333333"/>
<rect x="40.8833" y="9.82239" width="1.31883" height="4.20967" fill="#333333"/>
<rect x="39.5654" y="9.82239" width="1.31883" height="4.20967" fill="#333333"/>
<rect x="71.2148" y="22.4521" width="9.23183" height="9.82258" fill="white" fill-opacity="0.8"/>
<rect x="72.5342" y="16.8391" width="6.59416" height="15.4355" fill="white" fill-opacity="0.8"/>
<rect x="73.8525" y="12.6293" width="3.9565" height="21.0484" fill="white" fill-opacity="0.8"/>
<rect x="75.1714" y="9.82239" width="1.31883" height="25.2581" fill="white" fill-opacity="0.8"/>
<rect x="69.8965" y="25.2582" width="11.8695" height="5.6129" fill="white" fill-opacity="0.8"/>
<rect x="75.1714" y="15.4354" width="1.31883" height="18.2419" fill="#F4F4F4" fill-opacity="0.7"/>
<rect x="73.8525" y="21.0485" width="3.9565" height="11.2258" fill="#F4F4F4" fill-opacity="0.7"/>
<rect x="72.5342" y="23.8544" width="6.59416" height="8.41935" fill="#F4F4F4" fill-opacity="0.7"/>
<rect x="75.1714" y="18.2417" width="1.31883" height="14.0322" fill="#D2D2D2" fill-opacity="0.75"/>
<rect x="73.8525" y="22.4521" width="3.9565" height="8.41935" fill="#D2D2D2" fill-opacity="0.75"/>
<rect x="72.5342" y="26.6613" width="6.59416" height="4.20967" fill="#D2D2D2" fill-opacity="0.75"/>
<rect x="75.1714" y="23.8544" width="1.31883" height="5.6129" fill="#747474" fill-opacity="0.6"/>
<rect x="10.5508" y="22.4521" width="9.23183" height="9.82258" fill="white" fill-opacity="0.8"/>
<rect x="11.8701" y="16.8391" width="6.59416" height="15.4355" fill="white" fill-opacity="0.8"/>
<rect x="13.188" y="12.6293" width="3.9565" height="21.0484" fill="white" fill-opacity="0.8"/>
<rect x="14.5063" y="9.82239" width="1.31883" height="25.2581" fill="white" fill-opacity="0.8"/>
<rect x="9.23145" y="25.2582" width="11.8695" height="5.6129" fill="white" fill-opacity="0.8"/>
<rect x="14.5063" y="15.4354" width="1.31883" height="18.2419" fill="#F4F4F4" fill-opacity="0.7"/>
<rect x="13.188" y="21.0485" width="3.9565" height="11.2258" fill="#F4F4F4" fill-opacity="0.7"/>
<rect x="11.8701" y="23.8544" width="6.59416" height="8.41935" fill="#F4F4F4" fill-opacity="0.7"/>
<rect x="14.5063" y="18.2417" width="1.31883" height="14.0322" fill="#D2D2D2" fill-opacity="0.75"/>
<rect x="13.188" y="22.4521" width="3.9565" height="8.41935" fill="#D2D2D2" fill-opacity="0.75"/>
<rect x="11.8701" y="26.6613" width="6.59416" height="4.20967" fill="#D2D2D2" fill-opacity="0.75"/>
<rect x="14.5063" y="23.8544" width="1.31883" height="5.6129" fill="#747474" fill-opacity="0.6"/>
<defs>
<linearGradient id="paint0_linear_803_159" x1="45.5" y1="0" x2="45.5" y2="75.7746" gradientUnits="userSpaceOnUse">
<stop stop-color="white"/>
<stop offset="1" stop-color="#B1B1B1"/>
</linearGradient>
<linearGradient id="paint1_linear_803_159" x1="33.6301" y1="78.5807" x2="33.6301" y2="87" gradientUnits="userSpaceOnUse">
<stop stop-color="#BF5331"/>
<stop offset="1" stop-color="#F5BD2C" stop-opacity="0.76"/>
</linearGradient>
<linearGradient id="paint2_linear_803_159" x1="33.6301" y1="79.9841" x2="33.6301" y2="82.7906" gradientUnits="userSpaceOnUse">
<stop stop-color="#BF5331"/>
<stop offset="1" stop-color="#F5BD2C" stop-opacity="0.76"/>
</linearGradient>
<linearGradient id="paint3_linear_803_159" x1="34.949" y1="78.5807" x2="34.949" y2="79.9839" gradientUnits="userSpaceOnUse">
<stop stop-color="#BF5331"/>
<stop offset="1" stop-color="#F5BD2C" stop-opacity="0.76"/>
</linearGradient>
<linearGradient id="paint4_linear_803_159" x1="32.3113" y1="78.5807" x2="32.3113" y2="79.9839" gradientUnits="userSpaceOnUse">
<stop stop-color="#BF5331"/>
<stop offset="1" stop-color="#F5BD2C" stop-opacity="0.76"/>
</linearGradient>
<linearGradient id="paint5_linear_803_159" x1="32.3113" y1="82.7903" x2="32.3113" y2="85.5968" gradientUnits="userSpaceOnUse">
<stop stop-color="#BF5331"/>
<stop offset="1" stop-color="#F5BD2C" stop-opacity="0.76"/>
</linearGradient>
<linearGradient id="paint6_linear_803_159" x1="34.949" y1="82.7903" x2="34.949" y2="85.5968" gradientUnits="userSpaceOnUse">
<stop stop-color="#BF5331"/>
<stop offset="1" stop-color="#F5BD2C" stop-opacity="0.76"/>
</linearGradient>
<linearGradient id="paint7_linear_803_159" x1="45.4997" y1="78.5807" x2="45.4997" y2="87" gradientUnits="userSpaceOnUse">
<stop stop-color="#BF5331"/>
<stop offset="1" stop-color="#F5BD2C" stop-opacity="0.76"/>
</linearGradient>
<linearGradient id="paint8_linear_803_159" x1="45.4997" y1="79.9841" x2="45.4997" y2="82.7906" gradientUnits="userSpaceOnUse">
<stop stop-color="#BF5331"/>
<stop offset="1" stop-color="#F5BD2C" stop-opacity="0.76"/>
</linearGradient>
<linearGradient id="paint9_linear_803_159" x1="46.8191" y1="78.5807" x2="46.8191" y2="79.9839" gradientUnits="userSpaceOnUse">
<stop stop-color="#BF5331"/>
<stop offset="1" stop-color="#F5BD2C" stop-opacity="0.76"/>
</linearGradient>
<linearGradient id="paint10_linear_803_159" x1="44.1814" y1="78.5807" x2="44.1814" y2="79.9839" gradientUnits="userSpaceOnUse">
<stop stop-color="#BF5331"/>
<stop offset="1" stop-color="#F5BD2C" stop-opacity="0.76"/>
</linearGradient>
<linearGradient id="paint11_linear_803_159" x1="44.1814" y1="82.7903" x2="44.1814" y2="85.5968" gradientUnits="userSpaceOnUse">
<stop stop-color="#BF5331"/>
<stop offset="1" stop-color="#F5BD2C" stop-opacity="0.76"/>
</linearGradient>
<linearGradient id="paint12_linear_803_159" x1="46.8191" y1="82.7903" x2="46.8191" y2="85.5968" gradientUnits="userSpaceOnUse">
<stop stop-color="#BF5331"/>
<stop offset="1" stop-color="#F5BD2C" stop-opacity="0.76"/>
</linearGradient>
<linearGradient id="paint13_linear_803_159" x1="57.3684" y1="78.5807" x2="57.3684" y2="87" gradientUnits="userSpaceOnUse">
<stop stop-color="#BF5331"/>
<stop offset="1" stop-color="#F5BD2C" stop-opacity="0.76"/>
</linearGradient>
<linearGradient id="paint14_linear_803_159" x1="57.3703" y1="79.9841" x2="57.3703" y2="82.7906" gradientUnits="userSpaceOnUse">
<stop stop-color="#BF5331"/>
<stop offset="1" stop-color="#F5BD2C" stop-opacity="0.76"/>
</linearGradient>
<linearGradient id="paint15_linear_803_159" x1="58.6887" y1="78.5807" x2="58.6887" y2="79.9839" gradientUnits="userSpaceOnUse">
<stop stop-color="#BF5331"/>
<stop offset="1" stop-color="#F5BD2C" stop-opacity="0.76"/>
</linearGradient>
<linearGradient id="paint16_linear_803_159" x1="56.05" y1="78.5807" x2="56.05" y2="79.9839" gradientUnits="userSpaceOnUse">
<stop stop-color="#BF5331"/>
<stop offset="1" stop-color="#F5BD2C" stop-opacity="0.76"/>
</linearGradient>
<linearGradient id="paint17_linear_803_159" x1="56.05" y1="82.7903" x2="56.05" y2="85.5968" gradientUnits="userSpaceOnUse">
<stop stop-color="#BF5331"/>
<stop offset="1" stop-color="#F5BD2C" stop-opacity="0.76"/>
</linearGradient>
<linearGradient id="paint18_linear_803_159" x1="58.6887" y1="82.7903" x2="58.6887" y2="85.5968" gradientUnits="userSpaceOnUse">
<stop stop-color="#BF5331"/>
<stop offset="1" stop-color="#F5BD2C" stop-opacity="0.76"/>
</linearGradient>
</defs>
</svg>
